<svg width="39" height="15" viewBox="0 0 39 15" fill="none" xmlns="http://www.w3.org/2000/svg">
<path d="M38.7071 8.30452C39.0976 7.91399 39.0976 7.28083 38.7071 6.89031L32.3431 0.526344C31.9526 0.135819 31.3195 0.135819 30.9289 0.526343C30.5384 0.916868 30.5384 1.55003 30.9289 1.94056L36.5858 7.59741L30.9289 13.2543C30.5384 13.6448 30.5384 14.278 30.9289 14.6685C31.3195 15.059 31.9526 15.059 32.3431 14.6685L38.7071 8.30452ZM37 8.59741L38 8.59741L38 6.59741L37 6.59741L37 8.59741Z" fill="#B2B2B2"/>
<path d="M28.7071 8.30452C29.0976 7.91399 29.0976 7.28083 28.7071 6.89031L22.3431 0.526344C21.9526 0.135819 21.3195 0.135819 20.9289 0.526343C20.5384 0.916868 20.5384 1.55003 20.9289 1.94056L26.5858 7.59741L20.9289 13.2543C20.5384 13.6448 20.5384 14.278 20.9289 14.6685C21.3195 15.059 21.9526 15.059 22.3431 14.6685L28.7071 8.30452ZM27 8.59741L28 8.59741L28 6.59741L27 6.59741L27 8.59741Z" fill="#CBCBCB"/>
<path d="M18.7071 8.30452C19.0976 7.91399 19.0976 7.28083 18.7071 6.89031L12.3431 0.526344C11.9526 0.135819 11.3195 0.135819 10.9289 0.526343C10.5384 0.916868 10.5384 1.55003 10.9289 1.94056L16.5858 7.59741L10.9289 13.2543C10.5384 13.6448 10.5384 14.278 10.9289 14.6685C11.3195 15.059 11.9526 15.059 12.3431 14.6685L18.7071 8.30452ZM17 8.59741L18 8.59741L18 6.59741L17 6.59741L17 8.59741Z" fill="#DADADA"/>
<path d="M8.70711 8.30452C9.09763 7.91399 9.09763 7.28083 8.70711 6.89031L2.34315 0.526344C1.95262 0.135819 1.31946 0.135819 0.928934 0.526343C0.538409 0.916868 0.538409 1.55003 0.928933 1.94056L6.58579 7.59741L0.928931 13.2543C0.538407 13.6448 0.538407 14.278 0.928931 14.6685C1.31946 15.059 1.95262 15.059 2.34314 14.6685L8.70711 8.30452ZM7 8.59741L8 8.59741L8 6.59741L7 6.59741L7 8.59741Z" fill="#E5E5E5"/>
</svg>
