<svg width="24" height="24" viewBox="0 0 24 24" fill="none" xmlns="http://www.w3.org/2000/svg">
<g clip-path="url(#clip0_802_1196)">
<path fill-rule="evenodd" clip-rule="evenodd" d="M7.50313 0.223155C9.4676 0.0767625 11.3661 0 13.7146 0C14.4641 0 15.1681 0.00781622 15.8435 0.0232495C16.7601 0.0441922 17.6541 0.367663 18.3669 0.96497C20.177 2.48153 21.3684 3.79375 22.7009 5.67843C23.5325 6.85481 23.9561 8.25437 23.9805 9.67025C23.9937 10.4408 24.0003 11.2176 24.0003 12C24.0003 14.7006 23.9203 17.3347 23.7684 19.8735C23.6439 21.9525 22.0061 23.6218 19.9262 23.7768C17.9616 23.9232 16.0631 24 13.7146 24C13.0697 24 12.4587 23.9942 11.871 23.9829C11.8899 23.9643 11.9086 23.9458 11.9274 23.927C13.5165 22.338 14.1432 20.1965 14.1432 18C14.1432 15.8034 13.5165 13.6621 11.9274 12.073C10.3383 10.4839 8.1969 9.85714 6.00032 9.85714C5.12818 9.85714 4.26474 9.95594 3.44112 10.1745C3.46884 8.11039 3.54331 6.08991 3.66084 4.12644C3.78528 2.04751 5.42317 0.378154 7.50313 0.223155Z" fill="#D4D4D4"/>
<path fill-rule="evenodd" clip-rule="evenodd" d="M18.2678 7.77121C18.8594 7.77121 19.3392 7.29152 19.3392 6.69979C19.3392 6.10807 18.8594 5.62836 18.2678 5.62836H9.68471C9.09299 5.62836 8.61328 6.10807 8.61328 6.69979C8.61328 7.29152 9.09299 7.77121 9.68471 7.77121H18.2678ZM18.2678 12.2126C18.8594 12.2126 19.3392 11.7329 19.3392 11.1412C19.3392 10.5495 18.8594 10.0698 18.2678 10.0698H13.8097C13.218 10.0698 12.7383 10.5495 12.7383 11.1412C12.7383 11.7329 13.218 12.2126 13.8097 12.2126H18.2678Z" fill="#838383"/>
<path fill-rule="evenodd" clip-rule="evenodd" d="M6 12C4.19652 12 2.6665 12.5099 1.58819 13.5882C0.509883 14.6665 0 16.1965 0 18C0 19.8034 0.509883 21.3334 1.58819 22.4119C2.6665 23.4902 4.19652 24 6 24C7.80348 24 9.3335 23.4902 10.4118 22.4119C11.4901 21.3334 12 19.8034 12 18C12 16.1965 11.4901 14.6665 10.4118 13.5882C9.3335 12.5099 7.80348 12 6 12Z" fill="#FFA801"/>
<path fill-rule="evenodd" clip-rule="evenodd" d="M8.09992 15.8998C8.51835 16.3182 8.51835 16.9966 8.09992 17.4149L6.80281 18.7121C6.38439 19.1306 5.70599 19.1306 5.28759 18.7121C4.86916 18.2937 4.86916 17.6153 5.28759 17.1969L6.5847 15.8998C7.00311 15.4813 7.6815 15.4813 8.09992 15.8998Z" fill="#D4D4D4"/>
</g>
<defs>
<clipPath id="clip0_802_1196">
<rect width="24" height="24" fill="white"/>
</clipPath>
</defs>
</svg>
