<svg width="50" height="50" viewBox="0 0 50 50" fill="none" xmlns="http://www.w3.org/2000/svg">
<path fill-rule="evenodd" clip-rule="evenodd" d="M16.6355 35.3571H45.9643V12.375H49.5V35.3571C49.5 36.2949 49.1275 37.1942 48.4644 37.8573C47.8013 38.5203 46.902 38.8929 45.9643 38.8929H31.8214V45.9643H38.8929V49.5H10.6071V45.9643H17.6786V38.8929H13.0998L16.6355 35.3571ZM3.53571 3.53571H43.4716L39.9359 7.07143H3.53571V35.3571H0V7.07143C0 6.1337 0.372512 5.23438 1.03559 4.5713C1.69866 3.90823 2.59798 3.53571 3.53571 3.53571ZM21.2143 45.9643H28.2857V38.8929H21.2143V45.9643Z" fill="black"/>
<path d="M16.6355 35.3571L49.5 2.49268L47.0073 0L43.4716 3.53571L39.9359 7.07143L0 47.0073L2.49268 49.5L13.0998 38.8929L16.6355 35.3571Z" fill="#E36F00"/>
</svg>
